<svg class="sprite" xmlns="http://www.w3.org/2000/svg" xmlns:xlink="http://www.w3.org/1999/xlink"><symbol viewBox="0 0 22 22" id="close" xmlns="http://www.w3.org/2000/svg"><path d="M.092 19.803 19.802.098s1.048-.36 1.754.346.358 1.765.358 1.765L2.204 21.914s-1.06.348-1.766-.358-.346-1.753-.346-1.753Z"/><path d="m2.197.092 19.711 19.705s.36 1.047-.346 1.753-1.766.358-1.766.358L.086 2.203S-.262 1.143.444.438C1.15-.268 2.197.092 2.197.092Z"/></symbol><symbol viewBox="0 0 47 47" id="code" xmlns="http://www.w3.org/2000/svg"><path d="M28.392 6.288a2.15 2.15 0 0 0-2.661 1.486l-8.6 30.263a2.165 2.165 0 0 0 1.477 2.675 2.15 2.15 0 0 0 2.661-1.486l8.6-30.263a2.165 2.165 0 0 0-1.477-2.675Zm5.415 8.113a2.173 2.173 0 0 0 0 3.06l6 6.04-6.006 6.038a2.173 2.173 0 0 0 0 3.06c.84.845 2.204.845 3.043 0l7.526-7.565c.84-.845.84-2.216 0-3.06l-7.526-7.566a2.145 2.145 0 0 0-3.043 0l.006-.007Zm-20.608 0a2.145 2.145 0 0 0-3.043 0L2.63 21.967a2.173 2.173 0 0 0 0 3.06l7.526 7.566c.84.844 2.203.844 3.043 0 .84-.845.84-2.216 0-3.06L7.192 23.5l6.007-6.039c.84-.844.84-2.216 0-3.06Z"/></symbol><symbol viewBox="0 0 47 47" id="doc" xmlns="http://www.w3.org/2000/svg"><path d="M12.663 2c-2.99 0-5.42 2.41-5.42 5.375v32.25c0 2.965 2.43 5.375 5.42 5.375h21.674c2.99 0 5.42-2.41 5.42-5.375V15.437H28.918a2.696 2.696 0 0 1-2.71-2.687V2H12.663Zm16.256 0v10.75h10.837L28.92 2ZM16.727 23.5h13.546c.745 0 1.355.605 1.355 1.344 0 .739-.61 1.343-1.355 1.343H16.727a1.353 1.353 0 0 1-1.355-1.343c0-.74.61-1.344 1.355-1.344Zm0 5.375h13.546c.745 0 1.355.605 1.355 1.344 0 .739-.61 1.343-1.355 1.343H16.727a1.353 1.353 0 0 1-1.355-1.343c0-.74.61-1.344 1.355-1.344Zm0 5.375h13.546c.745 0 1.355.605 1.355 1.344 0 .739-.61 1.343-1.355 1.343H16.727a1.353 1.353 0 0 1-1.355-1.343c0-.74.61-1.344 1.355-1.344Z"/></symbol><symbol viewBox="0 0 38 38" id="eye" xmlns="http://www.w3.org/2000/svg"><path d="M18.997 4c-5.33 0-9.598 2.464-12.705 5.397-3.088 2.907-5.152 6.389-6.129 8.78a2.16 2.16 0 0 0 0 1.647c.977 2.39 3.041 5.872 6.129 8.779C9.399 31.536 13.667 34 18.997 34s9.598-2.464 12.705-5.397c3.087-2.913 5.152-6.389 6.135-8.78a2.16 2.16 0 0 0 0-1.647c-.983-2.39-3.048-5.872-6.135-8.779C28.595 6.464 24.327 4 18.997 4Zm-9.5 15c0-2.557 1.001-5.01 2.783-6.819a9.428 9.428 0 0 1 6.717-2.824 9.428 9.428 0 0 1 6.717 2.825A9.717 9.717 0 0 1 28.496 19c0 2.557-1 5.01-2.782 6.819a9.428 9.428 0 0 1-6.717 2.824 9.428 9.428 0 0 1-6.717-2.825A9.717 9.717 0 0 1 9.498 19Zm9.5-4.286c0 2.364-1.893 4.286-4.222 4.286-.469 0-.917-.08-1.34-.221-.362-.12-.784.107-.771.496.02.462.086.924.211 1.386.904 3.428 4.38 5.464 7.758 4.547 3.377-.918 5.383-4.447 4.479-7.875-.732-2.78-3.153-4.648-5.845-4.762-.382-.013-.607.409-.488.784.139.428.218.884.218 1.36Z"/></symbol><symbol viewBox="0 0 47 47" id="git" xmlns="http://www.w3.org/2000/svg"><path fill-rule="evenodd" clip-rule="evenodd" d="M23.5 0C10.516 0 0 10.553 0 23.582a23.56 23.56 0 0 0 16.068 22.373c1.175.206 1.616-.501 1.616-1.12 0-.56-.03-2.417-.03-4.392-5.904 1.09-7.431-1.445-7.902-2.771-.264-.678-1.41-2.771-2.408-3.331-.823-.442-1.998-1.533-.03-1.562 1.851-.03 3.173 1.71 3.614 2.417 2.114 3.567 5.493 2.564 6.844 1.945.206-1.532.822-2.564 1.498-3.154-5.229-.59-10.692-2.623-10.692-11.643 0-2.565.91-4.687 2.408-6.338-.235-.59-1.057-3.007.235-6.25 0 0 1.968-.618 6.463 2.418 1.88-.53 3.877-.796 5.875-.796 1.997 0 3.995.265 5.875.796 4.494-3.066 6.462-2.417 6.462-2.417 1.293 3.242.47 5.66.235 6.25 1.498 1.65 2.409 3.743 2.409 6.337 0 9.05-5.493 11.054-10.722 11.643.852.737 1.586 2.152 1.586 4.363 0 3.154-.029 5.689-.029 6.485 0 .619.44 1.356 1.616 1.12C40.273 42.83 47 33.987 47 23.582 47 10.552 36.484 0 23.5 0Z"/></symbol><symbol viewBox="0 0 70 70" id="layer" xmlns="http://www.w3.org/2000/svg"><path d="M31.787.708a7.648 7.648 0 0 1 6.426 0L68.1 14.518a3.269 3.269 0 0 1 1.9 2.98 3.269 3.269 0 0 1-1.9 2.981L38.213 34.29a7.648 7.648 0 0 1-6.426 0L1.9 20.479A3.299 3.299 0 0 1 0 17.5c0-1.272.738-2.448 1.9-2.981L31.787.707Zm29.04 27.948 7.273 3.363A3.269 3.269 0 0 1 70 35a3.269 3.269 0 0 1-1.9 2.98L38.213 51.79a7.648 7.648 0 0 1-6.426 0L1.9 37.98A3.299 3.299 0 0 1 0 35c0-1.272.738-2.447 1.9-2.98l7.274-3.364 20.781 9.598a12.044 12.044 0 0 0 10.09 0l20.781-9.598Zm-20.782 27.1 20.781-9.599 7.274 3.364a3.269 3.269 0 0 1 1.9 2.98 3.269 3.269 0 0 1-1.9 2.982l-29.887 13.81a7.648 7.648 0 0 1-6.426 0L1.9 55.482A3.299 3.299 0 0 1 0 52.502c0-1.272.738-2.448 1.9-2.981l7.274-3.364 20.781 9.599a12.044 12.044 0 0 0 10.09 0Z"/></symbol><symbol viewBox="0 0 22 22" id="mail" xmlns="http://www.w3.org/2000/svg"><path d="M2.063 2.5C.923 2.5 0 3.452 0 4.625c0 .668.305 1.297.825 1.7l9.35 7.225c.49.376 1.16.376 1.65 0l9.35-7.225c.52-.403.825-1.032.825-1.7 0-1.173-.924-2.125-2.063-2.125H2.063ZM0 7.458v9.209C0 18.229 1.233 19.5 2.75 19.5h16.5c1.517 0 2.75-1.27 2.75-2.833V7.458l-9.35 7.225c-.98.757-2.32.757-3.3 0L0 7.458Z"/></symbol><symbol viewBox="0 0 32 19" id="menu" xmlns="http://www.w3.org/2000/svg"><path fill-rule="evenodd" clip-rule="evenodd" d="M0 17.623a1 1 0 0 0 1 1h30a1 1 0 0 0 0-2H1a1 1 0 0 0-1 1ZM0 9.623a1 1 0 0 0 1 1h30a1 1 0 0 0 0-2H1a1 1 0 0 0-1 1ZM0 1.623a1 1 0 0 0 1 1h30a1 1 0 1 0 0-2H1a1 1 0 0 0-1 1Z"/></symbol><symbol viewBox="0 0 70 70" id="puzzle" xmlns="http://www.w3.org/2000/svg"><path d="M26.25 14.328c0-1.258-.793-2.365-1.805-3.117-1.586-1.19-2.57-2.83-2.57-4.649C21.875 2.94 25.799 0 30.625 0c4.826 0 8.75 2.94 8.75 6.563 0 1.818-.984 3.458-2.57 4.648-1.012.752-1.805 1.86-1.805 3.117a3.174 3.174 0 0 0 3.172 3.172h7.766a6.564 6.564 0 0 1 6.562 6.563v7.765A3.174 3.174 0 0 0 55.672 35c1.258 0 2.365-.793 3.117-1.805 1.19-1.586 2.83-2.57 4.648-2.57 3.624 0 6.563 3.924 6.563 8.75 0 4.826-2.94 8.75-6.563 8.75-1.818 0-3.459-.984-4.648-2.57-.752-1.012-1.86-1.805-3.117-1.805a3.174 3.174 0 0 0-3.172 3.172v16.516A6.564 6.564 0 0 1 45.937 70h-7.765A3.174 3.174 0 0 1 35 66.828c0-1.258.793-2.365 1.805-3.117 1.586-1.19 2.57-2.83 2.57-4.648 0-3.623-3.924-6.563-8.75-6.563-4.826 0-8.75 2.94-8.75 6.563 0 1.818.984 3.459 2.57 4.648 1.012.752 1.805 1.86 1.805 3.117A3.174 3.174 0 0 1 23.078 70H6.563A6.564 6.564 0 0 1 0 63.437V46.922a3.174 3.174 0 0 1 3.172-3.172c1.258 0 2.365.793 3.117 1.805 1.19 1.586 2.83 2.57 4.649 2.57 3.622 0 6.562-3.924 6.562-8.75 0-4.826-2.94-8.75-6.563-8.75-1.818 0-3.458.984-4.648 2.57C5.537 34.207 4.43 35 3.172 35A3.174 3.174 0 0 1 0 31.828v-7.765A6.564 6.564 0 0 1 6.563 17.5h16.515a3.174 3.174 0 0 0 3.172-3.172Z"/></symbol><symbol viewBox="0 0 47 47" id="repo" xmlns="http://www.w3.org/2000/svg"><path d="M46.114 21.406 25.593.886a3.027 3.027 0 0 0-4.28 0l-4.261 4.262 5.405 5.405a3.593 3.593 0 0 1 4.552 4.583l5.21 5.21a3.6 3.6 0 0 1 3.721 5.948 3.601 3.601 0 0 1-5.879-3.918l-4.858-4.858v12.785a3.602 3.602 0 1 1-2.962-.105V17.294a3.6 3.6 0 0 1-1.955-4.723l-5.329-5.33-14.07 14.07a3.028 3.028 0 0 0 0 4.282l20.52 20.52a3.027 3.027 0 0 0 4.281 0l20.425-20.425a3.029 3.029 0 0 0 0-4.282Z"/></symbol><symbol viewBox="0 0 47 47" id="site" xmlns="http://www.w3.org/2000/svg"><path fill-rule="evenodd" clip-rule="evenodd" d="m44.325 31.417-2.736-1.523c1.773-4.71 1.724-9.826.297-14.023-2.687 1.046-5.586 1.84-8.596 2.378.304 2.334.394 4.782.26 7.358l-3-1.66a29.05 29.05 0 0 0-.247-5.255 56.542 56.542 0 0 1-13.685-.026c-.381 2.364-.461 6.313.045 9.029 2.743-.34 5.54-.48 8.325-.41l.706 3.003a55.17 55.17 0 0 0-8.42.375c1.964 7.548 6.258 11.507 6.258 11.507s1.873-1.671 3.714-5.038L28.9 44.61c-1.716.42-3.51.643-5.356.643C11.094 45.253 1 35.123 1 22.626 1 10.13 11.094 0 23.545 0 35.996 0 46 10.13 46 22.626c0 3.118-.538 6.088-1.675 8.791ZM19.327 41.77a32.368 32.368 0 0 1-4.974-10.665c-2.583.469-5.06 1.133-7.323 1.99 2.74 4.345 7.136 7.535 12.297 8.675ZM5.598 30.372c2.566-.973 5.305-1.717 8.138-2.232-.541-2.832-.698-7.364-.069-9.929-2.95-.54-5.8-1.326-8.453-2.364-1.458 3.969-1.758 9.992.384 14.525Zm.895-17.31c2.37.945 4.993 1.67 7.738 2.176 1.182-4.991 3.334-8.98 5.27-11.792-5.59 1.18-10.298 4.76-13.008 9.616ZM23.532 3.22s-4.425 4.541-6.346 12.47c4.164.517 8.494.55 12.57.098-1.86-7.74-6.224-12.568-6.224-12.568Zm3.999.213c2.548 3.618 4.31 7.561 5.258 11.919 2.847-.507 5.503-1.27 7.807-2.292-2.72-4.872-7.45-8.46-13.065-9.627ZM45.9 35.429l-6.216 1.81 5.013 6.833L40.586 47l-5.113-6.742-3.51 5.333-4.511-20.134L45.9 35.43Z"/></symbol><symbol viewBox="0 0 22 22" id="talk" xmlns="http://www.w3.org/2000/svg"><path d="M22 10.321c0 4.873-4.924 8.822-11 8.822a13.31 13.31 0 0 1-4.472-.76c-.511.37-1.345.874-2.333 1.299-1.031.44-2.273.818-3.506.818a.688.688 0 0 1-.636-.42.673.673 0 0 1 .146-.738l.013-.012a5.04 5.04 0 0 0 .266-.301c.176-.213.413-.526.653-.917.43-.704.838-1.628.92-2.667C.76 14.003 0 12.235 0 10.32c0-4.873 4.924-8.821 11-8.821C17.076 1.5 22 5.448 22 10.321Z"/></symbol><symbol viewBox="0 0 38 38" id="tgm" xmlns="http://www.w3.org/2000/svg"><path d="M19 0C8.504 0 0 8.504 0 19s8.504 19 19 19 19-8.504 19-19S29.496 0 19 0Zm8.81 12.925c-.283 3.003-1.524 10.296-2.152 13.66-.268 1.425-.79 1.9-1.295 1.946-1.103.1-1.938-.728-3.011-1.433-1.67-1.096-2.62-1.777-4.237-2.85-1.877-1.233-.659-1.915.406-3.026.284-.291 5.141-4.712 5.233-5.11.096-.336-.23-.426-.483-.376-.168.036-2.84 1.8-8.013 5.294-.756.521-1.443.774-2.061.759-.682-.016-1.984-.383-2.957-.698-1.188-.383-2.138-.59-2.054-1.248.041-.343.514-.692 1.418-1.05 5.536-2.41 9.229-4.002 11.078-4.773 5.279-2.191 6.374-2.574 7.087-2.59.903 0 1.088.75 1.042 1.495Z"/></symbol><symbol viewBox="0 0 70 70" id="tool" xmlns="http://www.w3.org/2000/svg"><path d="M10.75.685C9.45-.326 7.604-.203 6.43.96L.96 6.427a3.292 3.292 0 0 0-.286 4.32L11.61 24.966a3.283 3.283 0 0 0 2.597 1.285h7.396l14.902 14.902c-2.01 3.965-1.367 8.941 1.955 12.25l15.311 15.312a4.381 4.381 0 0 0 6.193 0l8.75-8.75a4.382 4.382 0 0 0 0-6.193L53.403 38.46c-3.308-3.309-8.284-3.965-12.25-1.955l-14.9-14.902v-7.397a3.264 3.264 0 0 0-1.286-2.597L10.75.685Zm-8.026 53.47a9.294 9.294 0 0 0-2.72 6.562A9.283 9.283 0 0 0 9.287 70c2.46 0 4.825-.984 6.562-2.72l16.104-16.106a15 15 0 0 1-.492-8.9l-8.435-8.435L2.724 54.155ZM70 19.689c0-1.436-.15-2.83-.438-4.17-.328-1.531-2.2-1.928-3.308-.82l-8.736 8.736c-.41.41-.97.642-1.545.642l-7.847-.013a2.194 2.194 0 0 1-2.187-2.188V14.03c0-.575.232-1.135.642-1.545l8.736-8.736c1.108-1.108.711-2.98-.82-3.309a20.108 20.108 0 0 0-4.183-.437c-10.869 0-19.687 8.818-19.687 19.687v.11l11.662 11.66a14.918 14.918 0 0 1 14.218 3.925l2.146 2.146C65.352 34.386 70 27.577 70 19.69ZM7.66 59.063a3.281 3.281 0 1 1 6.562 0 3.281 3.281 0 0 1-6.562 0Z"/></symbol><symbol viewBox="0 0 70 70" id="upload" xmlns="http://www.w3.org/2000/svg"><path d="M15.75 59C7.055 59 0 51.945 0 43.25c0-6.869 4.397-12.71 10.522-14.864-.011-.295-.022-.59-.022-.886C10.5 17.831 18.331 10 28 10c6.486 0 12.14 3.522 15.17 8.772A10.446 10.446 0 0 1 49 17c5.797 0 10.5 4.703 10.5 10.5 0 1.334-.252 2.603-.7 3.784C65.188 32.575 70 38.23 70 45c0 7.733-6.267 14-14 14H15.75Zm8.64-23.734a2.614 2.614 0 0 0 0 3.707c1.029 1.018 2.691 1.029 3.708 0l4.266-4.265.011 14.667A2.619 2.619 0 0 0 35 52a2.619 2.619 0 0 0 2.625-2.625V34.708l4.266 4.265a2.614 2.614 0 0 0 3.707 0c1.018-1.028 1.029-2.69 0-3.707l-8.75-8.75a2.614 2.614 0 0 0-3.707 0l-8.75 8.75Z"/></symbol><symbol viewBox="0 0 22 22" id="user" xmlns="http://www.w3.org/2000/svg"><path d="M11 11a4 4 0 1 0 0-8 4 4 0 0 0 0 8Zm-1.428 1.5A5.57 5.57 0 0 0 4 18.072c0 .512.416.928.928.928h12.144a.928.928 0 0 0 .928-.928 5.57 5.57 0 0 0-5.572-5.572H9.572Z"/></symbol><symbol viewBox="0 0 47 47" id="wp" xmlns="http://www.w3.org/2000/svg"><path d="M23.5 2C11.649 2 2 11.64 2 23.5 2 35.351 11.649 45 23.5 45S45 35.351 45 23.5C45 11.64 35.351 2 23.5 2ZM4.167 23.5c0-2.8.599-5.462 1.674-7.863l9.224 25.262C8.615 37.761 4.167 31.146 4.167 23.5ZM23.5 42.833c-1.899 0-3.728-.278-5.462-.79l5.8-16.852 5.939 16.28c.043.096.086.183.138.27a19.354 19.354 0 0 1-6.415 1.092Zm2.662-28.392c1.161-.061 2.21-.183 2.21-.183 1.04-.12.92-1.655-.121-1.595 0 0-3.13.243-5.15.243-1.898 0-5.089-.243-5.089-.243-1.04-.06-1.161 1.535-.121 1.595 0 0 .988.122 2.029.183l3.008 8.253-4.23 12.683-7.04-20.937a39.82 39.82 0 0 0 2.21-.181c1.04-.122.92-1.656-.121-1.596 0 0-3.13.243-5.15.243-.364 0-.789-.009-1.248-.026 3.46-5.245 9.398-8.713 16.151-8.713 5.028 0 9.614 1.925 13.056 5.072-.087-.009-.165-.017-.251-.017-1.899 0-3.243 1.655-3.243 3.433 0 1.595.92 2.939 1.899 4.534.737 1.283 1.595 2.939 1.595 5.331 0 1.656-.633 3.572-1.474 6.251l-1.924 6.441L26.16 14.44Zm7.056 25.765 5.904-17.07c1.101-2.757 1.474-4.959 1.474-6.927 0-.71-.043-1.37-.13-1.985a19.252 19.252 0 0 1 2.367 9.276c0 7.135-3.867 13.36-9.615 16.706Z"/></symbol><symbol viewBox="0 0 47 47" id="zoom" xmlns="http://www.w3.org/2000/svg"><path d="M36.94 19.466c0 3.854-1.252 7.415-3.36 10.304l10.633 10.639a2.69 2.69 0 0 1-3.805 3.804l-10.633-10.64a17.372 17.372 0 0 1-10.305 3.36C9.82 36.932 2 29.114 2 19.465 2 9.818 9.82 2 19.47 2c9.65 0 17.47 7.818 17.47 17.466ZM19.47 31.558a12.096 12.096 0 0 0 12.094-12.092A12.09 12.09 0 0 0 19.47 7.374 12.097 12.097 0 0 0 7.375 19.466 12.09 12.09 0 0 0 19.47 31.558Z"/></symbol></svg>