<svg width="22" height="22" viewBox="0 0 22 22" fill="none" xmlns="http://www.w3.org/2000/svg"><path d="M0.0919655 19.8033L19.8025 0.0980374C19.8025 0.0980374 20.8501 -0.262098 21.5561 0.443735C22.2622 1.14957 21.9141 2.20939 21.9141 2.20939L2.20366 21.9144C2.20366 21.9144 1.14376 22.262 0.437731 21.5562C-0.268299 20.8504 0.0919655 19.8033 0.0919655 19.8033Z" fill="black"/><path d="M2.19735 0.0918802L21.9081 19.7968C21.9081 19.7968 22.2683 20.8442 21.5623 21.55C20.8563 22.2559 19.7962 21.9079 19.7962 21.9079L0.0856341 2.20298C0.0856341 2.20298 -0.262112 1.14338 0.443918 0.437549C1.14995 -0.268283 2.19735 0.0918802 2.19735 0.0918802Z" fill="black"/></svg>
