<svg width="47" height="47" viewBox="0 0 47 47" fill="none" xmlns="http://www.w3.org/2000/svg">
<path d="M28.3916 6.28784C27.2494 5.95684 26.06 6.6256 25.7308 7.77399L17.1301 38.0373C16.8009 39.1857 17.4661 40.3814 18.6084 40.7124C19.7506 41.0434 20.94 40.3746 21.2692 39.2263L29.8699 8.96291C30.1991 7.81452 29.5339 6.61885 28.3916 6.28784ZM33.8074 14.4009C32.9675 15.2453 32.9675 16.6166 33.8074 17.461L39.8077 23.5001L33.8007 29.5393C32.9607 30.3837 32.9607 31.755 33.8007 32.5994C34.6406 33.4438 36.0046 33.4438 36.8445 32.5994L44.3701 25.0336C45.21 24.1892 45.21 22.8178 44.3701 21.9734L36.8445 14.4076C36.0046 13.5632 34.6406 13.5632 33.8007 14.4076L33.8074 14.4009ZM13.1994 14.4009C12.3594 13.5565 10.9954 13.5565 10.1555 14.4009L2.62993 21.9667C1.79002 22.8111 1.79002 24.1824 2.62993 25.0268L10.1555 32.5926C10.9954 33.437 12.3594 33.437 13.1994 32.5926C14.0393 31.7482 14.0393 30.3769 13.1994 29.5325L7.19232 23.5001L13.1994 17.461C14.0393 16.6166 14.0393 15.2453 13.1994 14.4009Z" fill="#618626"/>
</svg>
