<svg width="47" height="47" viewBox="0 0 47 47" fill="none" xmlns="http://www.w3.org/2000/svg">
<path d="M12.6626 2C9.67384 2 7.2439 4.41035 7.2439 7.375V39.625C7.2439 42.5896 9.67384 45 12.6626 45H34.3374C37.3261 45 39.7561 42.5896 39.7561 39.625V15.4375H28.9187C27.4201 15.4375 26.2093 14.2365 26.2093 12.75V2H12.6626ZM28.9187 2V12.75H39.7561L28.9187 2ZM16.7266 23.5H30.2734C31.0184 23.5 31.628 24.1047 31.628 24.8438C31.628 25.5828 31.0184 26.1875 30.2734 26.1875H16.7266C15.9815 26.1875 15.3719 25.5828 15.3719 24.8438C15.3719 24.1047 15.9815 23.5 16.7266 23.5ZM16.7266 28.875H30.2734C31.0184 28.875 31.628 29.4797 31.628 30.2188C31.628 30.9578 31.0184 31.5625 30.2734 31.5625H16.7266C15.9815 31.5625 15.3719 30.9578 15.3719 30.2188C15.3719 29.4797 15.9815 28.875 16.7266 28.875ZM16.7266 34.25H30.2734C31.0184 34.25 31.628 34.8547 31.628 35.5938C31.628 36.3328 31.0184 36.9375 30.2734 36.9375H16.7266C15.9815 36.9375 15.3719 36.3328 15.3719 35.5938C15.3719 34.8547 15.9815 34.25 16.7266 34.25Z" fill="#618626"/>
</svg>
