<svg width="38" height="38" viewBox="0 0 38 38" fill="none" xmlns="http://www.w3.org/2000/svg">
<path d="M18.9967 4C13.6666 4 9.39858 6.46429 6.29155 9.39732C3.20432 12.3036 1.13957 15.7857 0.163267 18.1763C-0.0544224 18.7054 -0.0544224 19.2946 0.163267 19.8237C1.13957 22.2143 3.20432 25.6964 6.29155 28.6027C9.39858 31.5357 13.6666 34 18.9967 34C24.3268 34 28.5948 31.5357 31.7018 28.6027C34.7891 25.6897 36.8538 22.2143 37.8367 19.8237C38.0544 19.2946 38.0544 18.7054 37.8367 18.1763C36.8538 15.7857 34.7891 12.3036 31.7018 9.39732C28.5948 6.46429 24.3268 4 18.9967 4ZM9.49753 19C9.49753 16.4426 10.4983 13.9899 12.2798 12.1815C14.0612 10.3731 16.4774 9.35714 18.9967 9.35714C21.516 9.35714 23.9322 10.3731 25.7136 12.1815C27.4951 13.9899 28.4959 16.4426 28.4959 19C28.4959 21.5574 27.4951 24.0101 25.7136 25.8185C23.9322 27.6269 21.516 28.6429 18.9967 28.6429C16.4774 28.6429 14.0612 27.6269 12.2798 25.8185C10.4983 24.0101 9.49753 21.5574 9.49753 19ZM18.9967 14.7143C18.9967 17.0781 17.1035 19 14.7748 19C14.3065 19 13.8579 18.9196 13.4357 18.779C13.0729 18.6585 12.6507 18.8862 12.6639 19.2746C12.6837 19.7366 12.7497 20.1987 12.875 20.6607C13.7788 24.0893 17.2552 26.125 20.6327 25.2076C24.0102 24.2902 26.0155 20.7612 25.1118 17.3326C24.3796 14.5536 21.9586 12.6853 19.2672 12.5714C18.8846 12.558 18.6603 12.9799 18.779 13.3549C18.9175 13.7835 18.9967 14.2388 18.9967 14.7143Z" fill="white"/>
</svg>
