<svg width="47" height="47" viewBox="0 0 47 47" fill="none" xmlns="http://www.w3.org/2000/svg"><path fill-rule="evenodd" clip-rule="evenodd" d="M23.5 0C10.5162 0 0 10.5528 0 23.5818C0 34.0167 6.72687 42.8304 16.0681 45.955C17.2431 46.1613 17.6837 45.4538 17.6837 44.8348C17.6837 44.2748 17.6544 42.4177 17.6544 40.4427C11.75 41.5334 10.2225 38.9983 9.7525 37.6719C9.48812 36.9939 8.3425 34.901 7.34375 34.3409C6.52125 33.8988 5.34625 32.8081 7.31438 32.7786C9.165 32.7492 10.4869 34.4883 10.9275 35.1958C13.0425 38.7625 16.4206 37.7603 17.7719 37.1413C17.9775 35.6085 18.5944 34.5768 19.27 33.9872C14.0412 33.3977 8.5775 31.3637 8.5775 22.3437C8.5775 19.7792 9.48813 17.6568 10.9863 16.0061C10.7513 15.4166 9.92875 12.9994 11.2212 9.75695C11.2212 9.75695 13.1894 9.13793 17.6837 12.1741C19.5637 11.6435 21.5613 11.3782 23.5588 11.3782C25.5563 11.3782 27.5538 11.6435 29.4338 12.1741C33.9281 9.10845 35.8963 9.75695 35.8963 9.75695C37.1888 12.9994 36.3663 15.4166 36.1313 16.0061C37.6294 17.6568 38.54 19.7497 38.54 22.3437C38.54 31.3932 33.0469 33.3977 27.8181 33.9872C28.67 34.7241 29.4044 36.139 29.4044 38.3498C29.4044 41.5039 29.375 44.0389 29.375 44.8348C29.375 45.4538 29.8156 46.1908 30.9906 45.955C40.2731 42.8304 47 33.9872 47 23.5818C47 10.5528 36.4838 0 23.5 0Z" fill="#1B1F23"/></svg>
