<svg width="70" height="70" viewBox="0 0 70 70" fill="none" xmlns="http://www.w3.org/2000/svg"><path d="M31.7871 0.707589C33.8242 -0.235863 36.1758 -0.235863 38.2129 0.707589L68.0996 14.5175C69.2617 15.0508 70 16.213 70 17.4983C70 18.7836 69.2617 19.9458 68.0996 20.4791L38.2129 34.289C36.1758 35.2324 33.8242 35.2324 31.7871 34.289L1.90039 20.4791C0.738281 19.9321 0 18.7699 0 17.4983C0 16.2267 0.738281 15.0508 1.90039 14.5175L31.7871 0.707589ZM60.8262 28.6556L68.0996 32.0192C69.2617 32.5525 70 33.7147 70 35C70 36.2853 69.2617 37.4475 68.0996 37.9808L38.2129 51.7907C36.1758 52.7342 33.8242 52.7342 31.7871 51.7907L1.90039 37.9808C0.738281 37.4338 0 36.2716 0 35C0 33.7284 0.738281 32.5525 1.90039 32.0192L9.17383 28.6556L29.9551 38.2542C33.1543 39.7309 36.8457 39.7309 40.0449 38.2542L60.8262 28.6556ZM40.0449 55.7559L60.8262 46.1573L68.0996 49.521C69.2617 50.0542 70 51.2164 70 52.5017C70 53.787 69.2617 54.9492 68.0996 55.4825L38.2129 69.2924C36.1758 70.2359 33.8242 70.2359 31.7871 69.2924L1.90039 55.4825C0.738281 54.9355 0 53.7733 0 52.5017C0 51.2301 0.738281 50.0542 1.90039 49.521L9.17383 46.1573L29.9551 55.7559C33.1543 57.2326 36.8457 57.2326 40.0449 55.7559Z" fill="#C9D2AC"/></svg>