<svg width="22" height="22" viewBox="0 0 22 22" fill="none" xmlns="http://www.w3.org/2000/svg">
<path d="M2.0625 2.5C0.923828 2.5 0 3.45182 0 4.625C0 5.29349 0.305078 5.92214 0.825 6.325L10.175 13.55C10.6648 13.9263 11.3352 13.9263 11.825 13.55L21.175 6.325C21.6949 5.92214 22 5.29349 22 4.625C22 3.45182 21.0762 2.5 19.9375 2.5H2.0625ZM0 7.45833V16.6667C0 18.2294 1.2332 19.5 2.75 19.5H19.25C20.7668 19.5 22 18.2294 22 16.6667V7.45833L12.65 14.6833C11.6703 15.4404 10.3297 15.4404 9.35 14.6833L0 7.45833Z" fill="#C9D2AC"/>
</svg>
