<svg width="32" height="19" viewBox="0 0 32 19" fill="none" xmlns="http://www.w3.org/2000/svg">
<path fill-rule="evenodd" clip-rule="evenodd" d="M0 17.6226C0 18.1748 0.447715 18.6226 1 18.6226H31C31.5523 18.6226 32 18.1748 32 17.6226C32 17.0703 31.5523 16.6226 31 16.6226H1C0.447715 16.6226 0 17.0703 0 17.6226Z" fill="#000000"/>
<path fill-rule="evenodd" clip-rule="evenodd" d="M0 9.62255C0 10.1748 0.447715 10.6226 1 10.6226H31C31.5523 10.6226 32 10.1748 32 9.62255C32 9.07027 31.5523 8.62255 31 8.62255H1C0.447715 8.62255 0 9.07027 0 9.62255Z" fill="#000000"/>
<path fill-rule="evenodd" clip-rule="evenodd" d="M0 1.62255C0 2.17484 0.447715 2.62255 1 2.62255H31C31.5523 2.62255 32 2.17484 32 1.62255C32 1.07027 31.5523 0.622555 31 0.622555H1C0.447715 0.622555 0 1.07027 0 1.62255Z" fill="#000000"/>
</svg>
