<svg width="70" height="70" viewBox="0 0 70 70" fill="none" xmlns="http://www.w3.org/2000/svg"><path d="M26.25 14.3281C26.25 13.0703 25.457 11.9629 24.4453 11.2109C22.8594 10.0215 21.875 8.38086 21.875 6.5625C21.875 2.93945 25.7988 0 30.625 0C35.4512 0 39.375 2.93945 39.375 6.5625C39.375 8.38086 38.3906 10.0215 36.8047 11.2109C35.793 11.9629 35 13.0703 35 14.3281C35 16.0781 36.4219 17.5 38.1719 17.5H45.9375C49.5605 17.5 52.5 20.4395 52.5 24.0625V31.8281C52.5 33.5781 53.9219 35 55.6719 35C56.9297 35 58.0371 34.207 58.7891 33.1953C59.9785 31.6094 61.6191 30.625 63.4375 30.625C67.0605 30.625 70 34.5488 70 39.375C70 44.2012 67.0605 48.125 63.4375 48.125C61.6191 48.125 59.9785 47.1406 58.7891 45.5547C58.0371 44.543 56.9297 43.75 55.6719 43.75C53.9219 43.75 52.5 45.1719 52.5 46.9219V63.4375C52.5 67.0605 49.5605 70 45.9375 70H38.1719C36.4219 70 35 68.5781 35 66.8281C35 65.5703 35.793 64.4629 36.8047 63.7109C38.3906 62.5215 39.375 60.8809 39.375 59.0625C39.375 55.4395 35.4512 52.5 30.625 52.5C25.7988 52.5 21.875 55.4395 21.875 59.0625C21.875 60.8809 22.8594 62.5215 24.4453 63.7109C25.457 64.4629 26.25 65.5703 26.25 66.8281C26.25 68.5781 24.8281 70 23.0781 70H6.5625C2.93945 70 0 67.0605 0 63.4375V46.9219C0 45.1719 1.42188 43.75 3.17188 43.75C4.42969 43.75 5.53711 44.543 6.28906 45.5547C7.47852 47.1406 9.11914 48.125 10.9375 48.125C14.5605 48.125 17.5 44.2012 17.5 39.375C17.5 34.5488 14.5605 30.625 10.9375 30.625C9.11914 30.625 7.47852 31.6094 6.28906 33.1953C5.53711 34.207 4.42969 35 3.17188 35C1.42188 35 0 33.5781 0 31.8281V24.0625C0 20.4395 2.93945 17.5 6.5625 17.5H23.0781C24.8281 17.5 26.25 16.0781 26.25 14.3281Z" fill="#C9D2AC"/></svg>