<svg width="47" height="47" viewBox="0 0 47 47" fill="none" xmlns="http://www.w3.org/2000/svg"><path d="M46.1136 21.4061L25.593 0.886589C24.4119 -0.295204 22.4952 -0.295204 21.3127 0.886589L17.0515 5.1478L22.457 10.5534C23.7132 10.1289 25.1536 10.4136 26.155 11.415C27.161 12.4227 27.4438 13.8755 27.009 15.1357L32.2185 20.3453C33.4789 19.9111 34.9331 20.192 35.9398 21.2003C37.3466 22.6066 37.3466 24.886 35.9398 26.2932C34.5325 27.7006 32.2532 27.7006 30.8452 26.2932C29.787 25.2339 29.5256 23.6798 30.0613 22.3761L25.203 17.5178L25.2025 30.3027C25.5546 30.4769 25.8763 30.7069 26.155 30.9838C27.5618 32.3902 27.5618 34.6697 26.155 36.078C24.7477 37.4847 22.4673 37.4847 21.0621 36.078C19.6552 34.6697 19.6552 32.3904 21.0621 30.984C21.3992 30.6467 21.7999 30.3796 22.2409 30.1981V17.294C21.7992 17.1137 21.3983 16.8464 21.0621 16.508C19.9961 15.4436 19.7398 13.8795 20.286 12.5707L14.9574 7.2415L0.886758 21.3112C-0.295586 22.4941 -0.295586 24.411 0.886758 25.593L21.4078 46.1129C22.5892 47.2949 24.5055 47.2949 25.6884 46.1129L46.1134 25.6883C47.2954 24.5059 47.2956 22.5879 46.1136 21.4061Z" fill="#DE4C36"/></svg>
