<svg width="47" height="47" viewBox="0 0 47 47" fill="none" xmlns="http://www.w3.org/2000/svg"><path fill-rule="evenodd" clip-rule="evenodd" d="M44.3255 31.4171L41.5886 29.8945C43.3624 25.1838 43.3132 20.068 41.8862 15.8708C39.1991 16.9166 36.3005 17.7107 33.2901 18.2486C33.5945 20.5826 33.6836 23.0305 33.5497 25.6067L30.55 23.9478C30.6315 22.1016 30.5312 20.3453 30.3033 18.6921C25.7998 19.2356 21.1318 19.2302 16.6181 18.6655C16.2366 21.0305 16.1566 24.9786 16.6633 27.6949C19.4056 27.3542 22.2038 27.2156 24.9882 27.2849L25.6941 30.2878C22.8976 30.1977 20.0495 30.3235 17.2735 30.6628C19.2376 38.2113 23.5318 42.1702 23.5318 42.1702C23.5318 42.1702 25.4053 40.4989 27.2457 37.1325L28.9013 44.6102C27.1845 45.03 25.3907 45.2526 23.5451 45.2526C11.0939 45.2526 1 35.1224 1 22.6263C1 10.1301 11.0939 0 23.5451 0C35.9965 0 46 10.1301 46 22.6263C46 25.744 45.4619 28.7145 44.3255 31.4171ZM19.3274 41.769C17.5081 39.2141 15.5219 35.6346 14.3533 31.1041C11.7695 31.5727 9.29289 32.2367 7.02962 33.094C9.77012 37.4391 14.1656 40.6286 19.3274 41.769ZM5.59831 30.3723C8.16376 29.3987 10.9033 28.6547 13.7363 28.1403C13.195 25.3085 13.0377 20.7761 13.6671 18.2111C10.7172 17.6714 7.86759 16.885 5.21352 15.8466C3.75554 19.8155 3.45586 25.8392 5.59831 30.3723ZM6.49313 13.0619C8.86388 14.0068 11.4863 14.7325 14.2314 15.2375C15.4132 10.2469 17.5646 6.25852 19.5005 3.44556C13.9112 4.62685 9.20295 8.20674 6.49313 13.0619ZM23.5318 3.21987C23.5318 3.21987 19.1072 7.76139 17.1861 15.6906C21.3501 16.2067 25.6799 16.2402 29.7553 15.7879C27.8965 8.04705 23.5318 3.21987 23.5318 3.21987ZM27.5307 3.43258C30.0794 7.0507 31.8409 10.994 32.7887 15.3519C35.6359 14.8449 38.2919 14.0811 40.5962 13.0597C37.8766 8.18832 33.1453 4.60089 27.5307 3.43258ZM45.8997 35.4286L39.6836 37.2398L44.6966 44.0719L40.586 47L35.4727 40.2584L31.9636 45.5913L27.4519 25.4571L45.8997 35.4286Z" fill="black"/></svg>
