<svg width="22" height="22" viewBox="0 0 22 22" fill="none" xmlns="http://www.w3.org/2000/svg">
<path d="M22 10.3214C22 15.1944 17.0761 19.1429 11.0006 19.1429C9.40659 19.1429 7.89418 18.8714 6.52785 18.3837C6.01655 18.7527 5.18301 19.2574 4.19478 19.6815C3.16359 20.1225 1.92187 20.5 0.688734 20.5C0.409454 20.5 0.160249 20.3346 0.0528337 20.0801C-0.054582 19.8257 0.00557079 19.5373 0.198919 19.3422L0.211809 19.3295C0.224699 19.3167 0.241885 19.2998 0.267665 19.2701C0.314928 19.2192 0.387971 19.1386 0.4782 19.0283C0.654361 18.8163 0.890676 18.5025 1.13129 18.1123C1.56095 17.4083 1.96913 16.4837 2.05076 15.4446C0.761777 14.0027 0.00127417 12.2342 0.00127417 10.3214C0.00127417 5.44844 4.92521 1.5 11.0006 1.5C17.0761 1.5 22 5.44844 22 10.3214Z" fill="#C9D2AC"/>
</svg>
