<svg width="38" height="38" viewBox="0 0 38 38" fill="none" xmlns="http://www.w3.org/2000/svg">
<path d="M19 0C8.50403 0 0 8.50403 0 19C0 29.496 8.50403 38 19 38C29.496 38 38 29.496 38 19C38 8.50403 29.496 0 19 0ZM27.8105 12.9246C27.527 15.9278 26.2859 23.2214 25.6577 26.5847C25.3895 28.0097 24.8685 28.4847 24.3629 28.5306C23.2597 28.6302 22.4246 27.8028 21.352 27.098C19.6819 26.0024 18.7319 25.3206 17.1153 24.248C15.2383 23.0145 16.4565 22.3327 17.5214 21.2218C17.8048 20.9306 22.6621 16.5101 22.754 16.1117C22.8501 15.7755 22.5246 15.6856 22.2714 15.7363C22.1028 15.772 19.4316 17.5367 14.2577 21.0302C13.5017 21.5512 12.8148 21.804 12.1968 21.7887C11.5149 21.7734 10.2125 21.4056 9.23952 21.0915C8.05202 20.7085 7.10202 20.5016 7.18629 19.8427C7.22715 19.5005 7.6996 19.1507 8.60363 18.7931C14.1402 16.3824 17.8329 14.7914 19.6819 14.0202C24.9605 11.829 26.056 11.446 26.7685 11.4306C27.6721 11.4306 27.8574 12.1794 27.8105 12.9246Z" fill="white"/>
</svg>
