<svg width="70" height="70" viewBox="0 0 70 70" fill="none" xmlns="http://www.w3.org/2000/svg"><path d="M10.7494 0.685221C9.45062 -0.326474 7.60502 -0.20343 6.4293 0.958652L0.960852 6.42727C-0.201193 7.58936 -0.324233 9.43502 0.673759 10.7475L11.6107 24.9659C12.2259 25.7725 13.1965 26.251 14.2082 26.251H21.6042L36.5058 41.153C34.4961 45.1178 35.1387 50.0942 38.4607 53.4027L53.7724 68.7149C55.4813 70.4238 58.2565 70.4238 59.9654 68.7149L68.7149 59.9651C70.4238 58.2561 70.4238 55.4808 68.7149 53.7719L53.4033 38.4597C50.0949 35.1512 45.1186 34.495 41.1539 36.5047L26.2524 21.6027V14.2064C26.2524 13.181 25.7739 12.224 24.9673 11.6088L10.7494 0.685221ZM2.72443 54.1547C0.988194 55.891 0.00387411 58.2561 0.00387411 60.717C0.00387411 65.8438 4.15989 70 9.28656 70C11.7474 70 14.1125 69.0156 15.8487 67.2794L31.9533 51.1743C30.8869 48.3169 30.7229 45.2135 31.4611 42.2741L23.026 33.8387L2.72443 54.1547ZM70 19.6887C70 18.2532 69.8496 16.8587 69.5625 15.5189C69.2344 13.9876 67.3615 13.5912 66.2541 14.6986L57.5183 23.4347C57.1081 23.8448 56.5476 24.0773 55.9734 24.0773L48.1262 24.0636C46.9232 24.0636 45.9388 23.0792 45.9388 21.8761V14.0287C45.9388 13.4545 46.1712 12.8939 46.5814 12.4838L55.3172 3.74765C56.4246 2.64025 56.0281 0.767251 54.497 0.439133C53.1435 0.152031 51.7491 0.00164349 50.3136 0.00164349C39.4451 0.00164349 30.6272 8.8198 30.6272 19.6887V19.7981L42.2886 31.4599C47.2102 30.2158 52.6514 31.5282 56.5066 35.3836L58.653 37.5301C65.3518 34.3856 70 27.5772 70 19.6887ZM7.6597 59.0628C7.6597 58.1925 8.00538 57.358 8.6207 56.7426C9.23602 56.1273 10.0706 55.7816 10.9408 55.7816C11.811 55.7816 12.6455 56.1273 13.2608 56.7426C13.8762 57.358 14.2218 58.1925 14.2218 59.0628C14.2218 59.933 13.8762 60.7676 13.2608 61.3829C12.6455 61.9982 11.811 62.3439 10.9408 62.3439C10.0706 62.3439 9.23602 61.9982 8.6207 61.3829C8.00538 60.7676 7.6597 59.933 7.6597 59.0628Z" fill="#C9D2AC"/></svg>
