<svg width="70" height="70" viewBox="0 0 70 70" fill="none" xmlns="http://www.w3.org/2000/svg"><path d="M15.75 59C7.05469 59 0 51.9453 0 43.25C0 36.3812 4.39687 30.5406 10.5219 28.3859C10.5109 28.0906 10.5 27.7953 10.5 27.5C10.5 17.8313 18.3313 10 28 10C34.4859 10 40.1406 13.5219 43.1703 18.7719C44.8328 17.6562 46.8453 17 49 17C54.7969 17 59.5 21.7031 59.5 27.5C59.5 28.8344 59.2484 30.1031 58.8 31.2844C65.1875 32.575 70 38.2297 70 45C70 52.7328 63.7328 59 56 59H15.75ZM24.3906 35.2656C23.3625 36.2937 23.3625 37.9562 24.3906 38.9734C25.4187 39.9906 27.0812 40.0016 28.0984 38.9734L32.3641 34.7078L32.375 49.375C32.375 50.8297 33.5453 52 35 52C36.4547 52 37.625 50.8297 37.625 49.375V34.7078L41.8906 38.9734C42.9187 40.0016 44.5813 40.0016 45.5984 38.9734C46.6156 37.9453 46.6266 36.2828 45.5984 35.2656L36.8484 26.5156C35.8203 25.4875 34.1578 25.4875 33.1406 26.5156L24.3906 35.2656Z" fill="#C9D2AC"/></svg>
