<svg width="22" height="22" viewBox="0 0 22 22" fill="none" xmlns="http://www.w3.org/2000/svg">
<path d="M11 11C12.0609 11 13.0783 10.5786 13.8284 9.82843C14.5786 9.07828 15 8.06087 15 7C15 5.93913 14.5786 4.92172 13.8284 4.17157C13.0783 3.42143 12.0609 3 11 3C9.93913 3 8.92172 3.42143 8.17157 4.17157C7.42143 4.92172 7 5.93913 7 7C7 8.06087 7.42143 9.07828 8.17157 9.82843C8.92172 10.5786 9.93913 11 11 11ZM9.57188 12.5C6.49375 12.5 4 14.9937 4 18.0719C4 18.5844 4.41563 19 4.92813 19H17.0719C17.5844 19 18 18.5844 18 18.0719C18 14.9937 15.5063 12.5 12.4281 12.5H9.57188Z" fill="#C9D2AC"/>
</svg>
