<svg width="47" height="47" viewBox="0 0 47 47" fill="none" xmlns="http://www.w3.org/2000/svg">
<path d="M23.5 2C11.649 2 2 11.6403 2 23.5C2 35.351 11.649 45 23.5 45C35.351 45 45 35.351 45 23.5C45 11.6403 35.351 2 23.5 2ZM4.16734 23.5C4.16734 20.6998 4.76552 18.0383 5.84052 15.6369L15.0647 40.8994C8.61472 37.7611 4.16734 31.1464 4.16734 23.5ZM23.5 42.8327C21.6014 42.8327 19.7722 42.5552 18.0383 42.0437L23.8381 25.1905L29.7766 41.4716C29.82 41.5669 29.8633 41.6536 29.9153 41.7403C27.9127 42.4425 25.754 42.8327 23.5 42.8327ZM26.1615 14.4405C27.3232 14.3798 28.3722 14.2585 28.3722 14.2585C29.4125 14.1371 29.2911 12.6026 28.2508 12.6633C28.2508 12.6633 25.1212 12.906 23.1012 12.906C21.2026 12.906 18.0123 12.6633 18.0123 12.6633C16.972 12.6026 16.8506 14.1978 17.8909 14.2585C17.8909 14.2585 18.8792 14.3798 19.9196 14.4405L22.9278 22.6937L18.6972 35.377L11.6577 14.4405C12.8194 14.3798 13.8683 14.2585 13.8683 14.2585C14.9087 14.1371 14.7873 12.6026 13.747 12.6633C13.747 12.6633 10.6173 12.906 8.59738 12.906C8.23327 12.906 7.80847 12.8974 7.34899 12.88C10.8081 7.63508 16.7466 4.16734 23.5 4.16734C28.5282 4.16734 33.1143 6.09194 36.556 9.23891C36.4694 9.23024 36.3913 9.22157 36.3046 9.22157C34.406 9.22157 33.0623 10.8774 33.0623 12.6546C33.0623 14.2498 33.9813 15.5935 34.9609 17.1887C35.6978 18.4718 36.556 20.1276 36.556 22.5204C36.556 24.1762 35.9232 26.0921 35.0823 28.771L33.1577 35.2123L26.1615 14.4405ZM33.2183 40.2058L39.1222 23.1359C40.2232 20.379 40.596 18.177 40.596 16.2091C40.596 15.4982 40.5526 14.8393 40.4659 14.2238C41.9744 16.9806 42.8327 20.1363 42.8327 23.5C42.8327 30.6349 38.9661 36.8595 33.2183 40.2058Z" fill="#618626"/>
</svg>
