<svg width="47" height="47" viewBox="0 0 47 47" fill="none" xmlns="http://www.w3.org/2000/svg">
<path d="M36.9392 19.4662C36.9392 23.3205 35.6878 26.8809 33.5797 29.7696L44.2126 40.4088C45.2625 41.4585 45.2625 43.1631 44.2126 44.2128C43.1628 45.2624 41.4578 45.2624 40.4079 44.2128L29.775 33.5735C26.8858 35.6896 23.3247 36.9324 19.4696 36.9324C9.81933 36.9324 2 29.1146 2 19.4662C2 9.8178 9.81933 2 19.4696 2C29.1199 2 36.9392 9.8178 36.9392 19.4662ZM19.4696 31.5582C21.0579 31.5582 22.6306 31.2454 24.0979 30.6377C25.5653 30.03 26.8985 29.1394 28.0216 28.0165C29.1447 26.8937 30.0355 25.5607 30.6433 24.0936C31.2511 22.6265 31.5639 21.0541 31.5639 19.4662C31.5639 17.8783 31.2511 16.3059 30.6433 14.8388C30.0355 13.3717 29.1447 12.0387 28.0216 10.9159C26.8985 9.79303 25.5653 8.90234 24.0979 8.29466C22.6306 7.68698 21.0579 7.37421 19.4696 7.37421C17.8814 7.37421 16.3087 7.68698 14.8413 8.29466C13.3739 8.90234 12.0407 9.79303 10.9176 10.9159C9.79455 12.0387 8.90369 13.3717 8.29589 14.8388C7.68809 16.3059 7.37526 17.8783 7.37526 19.4662C7.37526 21.0541 7.68809 22.6265 8.29589 24.0936C8.90369 25.5607 9.79455 26.8937 10.9176 28.0165C12.0407 29.1394 13.3739 30.03 14.8413 30.6377C16.3087 31.2454 17.8814 31.5582 19.4696 31.5582Z" fill="#618626"/>
</svg>
